<?xml version="1.0" encoding="UTF-8"?>
<svg id="Layer_2" data-name="Layer 2" xmlns="http://www.w3.org/2000/svg" viewBox="0 0 991.77 991.76">
  <defs>
    <style>
      .cls-1 {
        fill: #2d9376;
        stroke-width: 0px;
      }
    </style>
  </defs>
  <g id="Layer_1-2" data-name="Layer 1">
    <path class="cls-1" d="M500.59.02c-1.6-.01-3.18-.02-4.78-.02C224.57,0,2.61,219.36.02,491.17c-2.6,273.41,217.73,497.97,491.15,500.57,1.6.01,3.18.02,4.78.02,271.24,0,493.21-219.35,495.79-491.17C994.34,227.18,774.01,2.62,500.59.02ZM550.91,931.99v-25.71s141.27-141.26,141.27-141.26h33.08s0-68.56,0-68.56h-68.56s0,33.12,0,33.12l-105.79,105.78v-98.4l195.74-195.74h33.2s0-68.56,0-68.56h-68.56v33l-160.37,160.37v-104.18l141.23-141.24h33.12s0-68.57,0-68.57h-68.56s0,33.08,0,33.08l-105.79,105.79v-105.19s85.73-85.73,85.73-85.73h33.13s0-68.56,0-68.56h-68.56s0,33.08,0,33.08l-50.3,50.29v-149.86s-50.95.18-50.95.18v770.26c-1.34.01-2.67.05-4.01.05-1.4,0-2.84,0-4.24-.02-8.53-.08-17.01-.43-25.45-.99V368.88s-50.95,0-50.95,0v559.16c-11.39-2.11-22.65-4.67-33.78-7.66v-388.97s-50.95,0-50.95,0v371.85c-11.09-4.51-21.99-9.47-32.67-14.89l-1.02-266.98h-50.95s.9,236.57.9,236.57c-22.94-15.87-44.56-34.03-64.55-54.4-82.32-83.9-127.04-194.65-125.92-311.86,1.11-117.21,47.93-227.09,131.83-309.41,82.88-81.32,191.96-125.95,307.58-125.95,1.42,0,2.85,0,4.28.02,117.21,1.11,227.09,47.93,309.41,131.83,82.32,83.9,127.04,194.65,125.93,311.86-2.11,222.3-169.73,405-384.49,431.93Z"/>
  </g>
</svg>